<?xml version="1.0" standalone="no"?><!DOCTYPE svg PUBLIC "-//W3C//DTD SVG 1.1//EN" "http://www.w3.org/Graphics/SVG/1.1/DTD/svg11.dtd"><svg t="1710406140680" class="icon" viewBox="0 0 1024 1024" version="1.1" xmlns="http://www.w3.org/2000/svg" p-id="32334" xmlns:xlink="http://www.w3.org/1999/xlink" width="200" height="200"><path d="M179.2 832m-153.6 0a153.6 153.6 0 1 0 307.2 0 153.6 153.6 0 1 0-307.2 0Z" fill="#06CEA1" p-id="32335"></path><path d="M908.8 601.6m-89.6 0a89.6 89.6 0 1 0 179.2 0 89.6 89.6 0 1 0-179.2 0Z" fill="#06CEA1" p-id="32336"></path><path d="M194.9824 813.5936l48.064-312.448a12.8 12.8 0 0 0-25.2928-3.8912l-51.2 332.8a12.8 12.8 0 0 0 16.512 14.1568l729.6-230.4c10.9184-3.456 12.16-18.432 1.92-23.6288l-441.6-224a12.8 12.8 0 1 0-11.5712 22.8352l413.632 209.8176-680.064 214.7584z" fill="#06CEA1" p-id="32337"></path><path d="M268.8 51.2c127.2448 0 230.4 103.1552 230.4 230.4s-103.1552 230.4-230.4 230.4S38.4 408.8448 38.4 281.6 141.5552 51.2 268.8 51.2z m0 25.6C155.6864 76.8 64 168.4864 64 281.6s91.6864 204.8 204.8 204.8 204.8-91.6864 204.8-204.8S381.9136 76.8 268.8 76.8z" fill="#06CEA1" p-id="32338"></path></svg>